<svg xmlns="http://www.w3.org/2000/svg" viewBox="0 0 100 100">
  <defs>
    <linearGradient id="gold-grad" x1="0%" y1="0%" x2="100%" y2="100%">
      <stop offset="0%" style="stop-color:#9a7a30;stop-opacity:1" />
      <stop offset="50%" style="stop-color:#e8c96a;stop-opacity:1" />
      <stop offset="100%" style="stop-color:#c9a84c;stop-opacity:1" />
    </linearGradient>
    <filter id="glow">
      <feGaussianBlur stdDeviation="2" result="coloredBlur"/>
      <feMerge>
        <feMergeNode in="coloredBlur"/>
        <feMergeNode in="SourceGraphic"/>
      </feMerge>
    </filter>
  </defs>

  <!-- Crossed Axes -->
  <g stroke="url(#gold-grad)" stroke-width="2" fill="none">
    <path d="M20 80 L80 20" /> 
    <path d="M80 80 L20 20" /> 
    <path d="M15 75 Q10 85 25 85 L25 75 Z" fill="url(#gold-grad)" /> 
    <path d="M85 75 Q90 85 75 85 L75 75 Z" fill="url(#gold-grad)" /> 
    <path d="M15 25 Q10 15 25 15 L25 25 Z" fill="url(#gold-grad)" /> 
    <path d="M85 25 Q90 15 75 15 L75 25 Z" fill="url(#gold-grad)" /> 
  </g>

  <!-- Central Wolf Head -->
  <path d="M50 25 L65 45 L50 85 L35 45 Z M50 25 L40 35 M50 25 L60 35 M50 85 L42 65 M50 85 L58 65" 
        fill="none" stroke="url(#gold-grad)" stroke-width="3" filter="url(#glow)"/>
  
  <!-- Runic Circles -->
  <circle cx="50" cy="50" r="45" stroke="url(#gold-grad)" stroke-width="0.5" stroke-dasharray="2 4" fill="none" opacity="0.5" />
  <circle cx="50" cy="50" r="38" stroke="url(#gold-grad)" stroke-width="1" fill="none" opacity="0.3" />
</svg>
